#!OML:ASF H:\Not Pregnant\Project 1\Capture day 1\Session 1\non-pregnant.ASF
:FULLY-SPECIFIED
:DEGREES
906
root 4.48519 16.791 -3.92654 -166.307 176.061 -180.468
lowerback -0.940683 -0.0873593 -1.31421
upperback -7.41043 -0.17175 -0.347715
thorax -7.18652 -0.0117771 0.380113
lowerneck 15.8466 -10.9433 -30.9709
upperneck 0.336181 -21.416 37.7417
head 5.75394 -12.3353 18.0355
rclavicle -5.25537e-015 2.18663e-015
rhumerus -42.611 -30.2679 -66.8268
rradius 21.0742
rwrist 39.1312
rhand -5.70372 -2.8008
rfingers 7.12502
rthumb 20.1172 -31.7793
lclavicle -5.25537e-015 2.18663e-015
lhumerus -39.1361 -5.71321 91.3379
lradius 37.4919
lwrist 33.1127
lhand -13.0705 -12.6716
lfingers 7.12502
lthumb 13.0252 16.9017
rfemur -62.4193 -2.43924 28.6406
rtibia 62.4892
rfoot -12.2275 3.54902
rtoes -9.29
lfemur 0.0303447 -6.36597 -22.0546
ltibia 14.207
lfoot 0.0600826 -22.6692
ltoes -8.78011
907
root 4.48388 16.8004 -3.7761 -166.224 176.202 -180.659
lowerback -1.14455 -0.0112694 -1.01571
upperback -7.48895 -0.054737 -0.297936
thorax -7.15433 0.0295423 0.258916
lowerneck 15.788 -10.9244 -31.0163
upperneck 0.283747 -21.3661 37.7198
head 5.73129 -12.3037 18.0353
rclavicle 1.24613e-014 -1.41137e-014
rhumerus -42.9639 -30.1975 -66.6701
rradius 21.058
rwrist 38.9821
rhand -5.60997 -2.85461
rfingers 7.12502
rthumb 20.2073 -31.8236
lclavicle 1.24613e-014 -1.41137e-014
lhumerus -39.6309 -5.40444 91.2334
lradius 37.1039
lwrist 32.9028
lhand -12.9148 -12.5207
lfingers 7.12502
lthumb 13.1754 17.043
rfemur -62.0803 -2.23293 28.7916
rtibia 62.8073
rfoot -12.5442 3.58514
rtoes -8.91389
lfemur -0.06717 -6.303 -21.8786
ltibia 15.0591
lfoot 1.04815 -22.6185
ltoes -9.01012
908
root 4.48317 16.8112 -3.6272 -166.169 176.411 -180.849
lowerback -1.31799 0.0774504 -0.716045
upperback -7.55336 0.0772337 -0.256214
thorax -7.12398 0.0778072 0.128428
lowerneck 15.7265 -10.8961 -31.0606
upperneck 0.22461 -21.3011 37.7097
head 5.70325 -12.2653 18.0449
rclavicle 5.62809e-015 -6.55989e-015
rhumerus -43.2572 -30.1478 -66.5466
rradius 21.0111
rwrist 38.9017
rhand -5.55263 -2.93248
rfingers 7.12502
rthumb 20.2624 -31.8956
lclavicle 5.62809e-015 -6.55989e-015
lhumerus -40.1252 -5.08317 91.0968
lradius 36.6754
lwrist 32.7349
lhand -12.8396 -12.4268
lfingers 7.12502
lthumb 13.2478 17.1322
rfemur -61.6663 -2.01463 28.9512
rtibia 63.06
rfoot -12.8981 3.64569
rtoes -8.6428
lfemur -0.232275 -6.1736 -21.7257
ltibia 16.0668
lfoot 2.15559 -22.5256
ltoes -9.14264
909
root 4.48281 16.8244 -3.48002 -166.151 176.687 -181.02
lowerback -1.45029 0.17636 -0.434454
upperback -7.60079 0.220285 -0.227177
thorax -7.09833 0.132156 -0.0053062
lowerneck 15.6609 -10.8582 -31.105
upperneck 0.165341 -21.2226 37.713
head 5.67291 -12.2209 18.0651
rclavicle 1.51573e-015 1.96797e-014
rhumerus -43.4852 -30.12 -66.4621
rradius 20.9395
rwrist 38.8747
rhand -5.51076 -3.05278
rfingers 7.12502
rthumb 20.3026 -32.0116
lclavicle 1.51573e-015 1.96797e-014
lhumerus -40.6071 -4.74887 90.9275
lradius 36.1934
lwrist 32.6085
lhand -12.8481 -12.4028
lfingers 7.12502
lthumb 13.2396 17.1567
rfemur -61.1488 -1.80549 29.1093
rtibia 63.2287
rfoot -13.321 3.73778
rtoes -8.42673
lfemur -0.408026 -5.9706 -21.6118
ltibia 17.1255
lfoot 3.49192 -22.3781
ltoes -9.01762
910
root 4.48263 16.8403 -3.33461 -166.179 177.019 -181.158
lowerback -1.527 0.279989 -0.186668
upperback -7.63101 0.366932 -0.212512
thorax -7.08542 0.189813 -0.135125
lowerneck 15.5852 -10.8135 -31.1477
upperneck 0.118418 -21.1344 37.7202
head 5.64458 -12.1711 18.0895
rclavicle 2.2239e-015 7.7526e-015
rhumerus -43.6576 -30.1361 -66.3928
rradius 20.8384
rwrist 38.9614
rhand -5.46978 -3.17266
rfingers 7.12502
rthumb 20.342 -32.1273
lclavicle 2.2239e-015 7.7526e-015
lhumerus -41.0795 -4.39473 90.7198
lradius 35.6547
lwrist 32.4919
lhand -12.9222 -12.4159
lfingers 7.12502
lthumb 13.1682 17.1482
rfemur -60.5082 -1.62209 29.2515
rtibia 63.3079
rfoot -13.8313 3.83435
rtoes -8.31349
lfemur -0.5673 -5.67758 -21.5442
ltibia 18.1863
lfoot 5.11814 -22.1749
ltoes -8.52514
911
root 4.48248 16.8591 -3.19103 -166.26 177.392 -181.251
lowerback -1.53319 0.384123 0.0167982
upperback -7.64553 0.511531 -0.216279
thorax -7.0956 0.24846 -0.259532
lowerneck 15.4975 -10.7652 -31.1873
upperneck 0.0927411 -21.0426 37.727
head 5.62253 -12.1183 18.114
rclavicle -1.70209e-015 2.38542e-015
rhumerus -43.779 -30.1977 -66.337
rradius 20.7092
rwrist 39.155
rhand -5.4244 -3.30821
rfingers 7.12502
rthumb 20.3856 -32.2582
lclavicle -1.70209e-015 2.38542e-015
lhumerus -41.5327 -4.00589 90.4577
lradius 35.0535
lwrist 32.3247
lhand -12.9985 -12.4259
lfingers 7.12502
lthumb 13.0947 17.143
rfemur -59.7425 -1.47259 29.3609
rtibia 63.3028
rfoot -14.409 3.91729
rtoes -8.28816
lfemur -0.700431 -5.28086 -21.5247
ltibia 19.2364
lfoot 7.05461 -21.91
ltoes -7.63043
912
root 4.48236 16.8812 -3.04954 -166.394 177.787 -181.3
lowerback -1.46322 0.482647 0.177622
upperback -7.6472 0.646613 -0.234963
thorax -7.13541 0.304343 -0.375915
lowerneck 15.4025 -10.7122 -31.2263
upperneck 0.0887011 -20.9469 37.7321
head 5.60597 -12.0629 18.1391
rclavicle -1.73812e-014 3.37934e-015
rhumerus -43.8426 -30.2673 -66.3192
rradius 20.5658
rwrist 39.373
rhand -5.37326 -3.48403
rfingers 7.12502
rthumb 20.4347 -32.4288
lclavicle -1.73812e-014 3.37934e-015
lhumerus -41.9623 -3.57777 90.141
lradius 34.3853
lwrist 32.0867
lhand -13.0681 -12.4143
lfingers 7.12502
lthumb 13.0275 17.1589
rfemur -58.8662 -1.35674 29.4296
rtibia 63.2224
rfoot -15.0185 4.0019
rtoes -8.23645
lfemur -0.825953 -4.77637 -21.5381
ltibia 20.2936
lfoot 9.32275 -21.5556
ltoes -6.18227
913
root 4.48223 16.9062 -2.91014 -166.578 178.19 -181.319
lowerback -1.32869 0.573751 0.311072
upperback -7.63535 0.770707 -0.264402
thorax -7.19757 0.355895 -0.488637
lowerneck 15.2977 -10.657 -31.2636
upperneck 0.109388 -20.8507 37.7329
head 5.59698 -12.006 18.1622
rclavicle 4.47266e-016 -3.37934e-015
rhumerus -43.8584 -30.3506 -66.3284
rradius 20.4152
rwrist 39.6601
rhand -5.32258 -3.66357
rfingers 7.12502
rthumb 20.4835 -32.6031
lclavicle 4.47266e-016 -3.37934e-015
lhumerus -42.3596 -3.10211 89.7635
lradius 33.6547
lwrist 31.7487
lhand -13.1116 -12.3524
lfingers 7.12502
lthumb 12.9856 17.2234
rfemur -57.8998 -1.25865 29.4602
rtibia 63.078
rfoot -15.6262 4.09432
rtoes -8.0815
lfemur -0.975248 -4.16836 -21.5581
ltibia 21.398
lfoot 11.87 -21.0841
ltoes -4.26319
914
root 4.48217 16.9335 -2.773 -166.796 178.585 -181.333
lowerback -1.14417 0.656305 0.444965
upperback -7.61504 0.88377 -0.296016
thorax -7.27908 0.401632 -0.6044
lowerneck 15.184 -10.6025 -31.2991
upperneck 0.151474 -20.7572 37.7269
head 5.59535 -11.9493 18.1808
rclavicle -4.84538e-016 3.97569e-015
rhumerus -43.8436 -30.4577 -66.3394
rradius 20.24
rwrist 40.0664
rhand -5.36455 -3.73763
rfingers 7.12502
rthumb 20.4431 -32.6815
lclavicle -4.84538e-016 3.97569e-015
lhumerus -42.7161 -2.58496 89.3321
lradius 32.8628
lwrist 31.3087
lhand -13.133 -12.2281
lfingers 7.12502
lthumb 12.965 17.3491
rfemur -56.8722 -1.16551 29.475
rtibia 62.8783
rfoot -16.2063 4.18489
rtoes -7.89862
lfemur -1.19822 -3.47512 -21.5482
ltibia 22.6107
lfoot 14.6258 -20.4513
ltoes -1.87219
915
root 4.48219 16.9626 -2.63804 -167.032 178.963 -181.377
lowerback -0.931162 0.731919 0.612317
upperback -7.58862 0.98982 -0.318961
thorax -7.36977 0.441858 -0.730382
lowerneck 15.0677 -10.5485 -31.3308
upperneck 0.212052 -20.6664 37.7138
head 5.59867 -11.8932 18.1948
rclavicle 1.33061e-014 4.17448e-015
rhumerus -43.7731 -30.5219 -66.4163
rradius 20.0902
rwrist 40.4166
rhand -5.38751 -3.82234
rfingers 7.12502
rthumb 20.421 -32.7685
lclavicle 1.33061e-014 4.17448e-015
lhumerus -43.0324 -2.04146 88.8618
lradius 32.0178
lwrist 30.7955
lhand -13.1491 -12.0583
lfingers 7.12502
lthumb 12.9495 17.5199
rfemur -55.8015 -1.06222 29.5096
rtibia 62.6242
rfoot -16.7497 4.26194
rtoes -7.75826
lfemur -1.54308 -2.71735 -21.4679
ltibia 23.9994
lfoot 17.4407 -19.6595
ltoes 0.836751
916
root 4.48207 16.9933 -2.50538 -167.262 179.297 -181.474
lowerback -0.719107 0.795423 0.833144
upperback -7.56159 1.08336 -0.324496
thorax -7.45849 0.472927 -0.867919
lowerneck 14.944 -10.4979 -31.3616
upperneck 0.290816 -20.582 37.6935
head 5.60973 -11.8391 18.2032
rclavicle -1.18028e-015 4.17448e-015
rhumerus -43.6568 -30.5315 -66.5536
rradius 19.9713
rwrist 40.7414
rhand -5.40717 -3.85722
rfingers 7.12502
rthumb 20.4022 -32.8054
lclavicle -1.18028e-015 4.17448e-015
lhumerus -43.3116 -1.47692 88.3613
lradius 31.143
lwrist 30.2035
lhand -13.1696 -11.8208
lfingers 7.12502
lthumb 12.9297 17.7586
rfemur -54.7149 -0.957235 29.5929
rtibia 62.3122
rfoot -17.2551 4.3184
rtoes -7.69538
lfemur -2.06272 -1.93427 -21.2912
ltibia 25.6205
lfoot 20.1272 -18.7884
ltoes 3.55978
917
root 4.48166 17.0259 -2.37531 -167.462 179.581 -181.645
lowerback -0.527807 0.847097 1.12705
upperback -7.53864 1.1661 -0.306335
thorax -7.5386 0.494683 -1.02105
lowerneck 14.8136 -10.4545 -31.3892
upperneck 0.379308 -20.5075 37.6673
head 5.62734 -11.7889 18.2051
rclavicle -6.43565e-015 1.78906e-015
rhumerus -43.5069 -30.5011 -66.728
rradius 19.866
rwrist 41.0911
rhand -5.50078 -3.7347
rfingers 7.12502
rthumb 20.3122 -32.6925
lclavicle -6.43565e-015 1.78906e-015
lhumerus -43.5504 -0.901064 87.8397
lradius 30.2558
lwrist 29.536
lhand -13.1943 -11.5015
lfingers 7.12502
lthumb 12.9059 18.0794
rfemur -53.6312 -0.849396 29.754
rtibia 61.93
rfoot -17.7167 4.34724
rtoes -7.72645
lfemur -2.7931 -1.15264 -20.9989
ltibia 27.505
lfoot 22.525 -17.9615
ltoes 5.99875
